<?xml version="1.0" encoding="utf-8"?>
<!-- Generator: Adobe Illustrator 15.1.0, SVG Export Plug-In . SVG Version: 6.00 Build 0)  -->
<!DOCTYPE svg PUBLIC "-//W3C//DTD SVG 1.1//EN" "http://www.w3.org/Graphics/SVG/1.1/DTD/svg11.dtd">
<svg version="1.1" id="Layer_1" xmlns="http://www.w3.org/2000/svg" xmlns:xlink="http://www.w3.org/1999/xlink" x="0px" y="0px"
	 width="864.03px" height="1727.914px" viewBox="0 0 864.03 1727.914" enable-background="new 0 0 864.03 1727.914"
	 xml:space="preserve">
<path fill-rule="evenodd" clip-rule="evenodd" stroke="#3953A4" stroke-width="0.001" stroke-miterlimit="10" d="M213.499,0
	c7.539,5.816,20.145,7.381,20.697,17.43c0.891,16.197-31.055,19.914-49.021,18.519c14.195,15.582,33.247,26.305,39.217,50.111
	c11.238,2.394,49.948,8.326,47.931,21.787c-1.32,8.815-19.728,8.892-31.591,6.536c6.165,8.731,22.843,19.82,29.413,33.77
	c4.723,10.027,7.817,30.388-3.268,33.77c-12.903,3.936-25.474-11.226-32.681-16.34c-11.528-8.182-18.939-13.596-28.323-20.698
	c5.792,12.663,11.337,24.728,14.161,43.574c1.575,10.505,5.195,43.312-6.536,45.753c-9.44,1.965-17.56-14.789-25.055-19.608
	c-9.184-5.905-17.704-5.157-23.966-11.983c0.714,4.989,7.049,10.453,11.983,16.341c5.512,6.579,11.76,12.411,10.893,20.697
	c-1.159,11.082-19.855,7.702-30.502,5.446c-30.504-6.461-59.28-20.427-76.254-32.68c4.738,14.604,24.086,43.254,11.983,64.271
	c-8.09,3.253-16.023-2.251-22.876-7.626c-12.278-9.627-24.006-22.853-32.68-32.68c4.809,12.558,10.727,44.374-10.894,42.485
	c2.777,12.912,13.073,46.066-2.178,49.02c-11.384,2.205-15.044-12.111-21.788-17.43c0-103.486,0-206.978,0-310.465
	C72.608,0,143.054,0,213.499,0z"/>
<path fill-rule="evenodd" clip-rule="evenodd" stroke="#3953A4" stroke-width="0.001" stroke-miterlimit="10" d="M597.94,484.963
	c1.34,0.476,2.236,1.395,2.178,3.269c-1.758,0.307-1.875-1.03-3.268-1.089C597.057,486.26,597.942,486.056,597.94,484.963z"/>
<path fill-rule="evenodd" clip-rule="evenodd" stroke="#3953A4" stroke-width="0.001" stroke-miterlimit="10" d="M605.565,499.125
	c1.016,1.163,4.018,0.339,3.268,3.268C607.817,501.23,604.815,502.054,605.565,499.125z"/>
<path fill-rule="evenodd" clip-rule="evenodd" stroke="#3953A4" stroke-width="0.001" stroke-miterlimit="10" d="M590.315,517.644
	c-7.014,3.519-13.662,7.401-20.699,10.894C571.385,519.868,581.151,515.543,590.315,517.644z"/>
<path fill-rule="evenodd" clip-rule="evenodd" stroke="#3953A4" stroke-width="0.001" stroke-miterlimit="10" d="M587.045,541.609
	c-0.566-1.611-1.611-2.746-2.178-4.357c-3.49,0.504-3.842,4.148-7.625,4.357c-1.705-14.184,16.184-15.66,25.055-9.804
	c-1.475,9.368-13.73,12.712-22.877,10.893C579.889,540.263,584.79,542.258,587.045,541.609z M587.045,532.895
	c2.703,0.16,5.285,0.202,5.447-2.179C589.79,530.556,587.206,530.514,587.045,532.895z M595.76,537.252c0.727,0,1.453,0,2.18,0
	c0.061-1.393,1.396-1.509,1.088-3.269c-1.088,0-2.178,0-3.268,0C595.76,535.073,595.76,536.163,595.76,537.252z"/>
<path fill-rule="evenodd" clip-rule="evenodd" fill="#FFFFFF" stroke="#3953A4" stroke-width="0.001" stroke-miterlimit="10" d="
	M592.493,530.716c-0.162,2.381-2.744,2.339-5.447,2.179C587.206,530.514,589.79,530.556,592.493,530.716z"/>
<path fill-rule="evenodd" clip-rule="evenodd" fill="#FFFFFF" stroke="#3953A4" stroke-width="0.001" stroke-miterlimit="10" d="
	M595.76,533.984c1.09,0,2.18,0,3.268,0c0.309,1.76-1.027,1.876-1.088,3.269c-0.727,0-1.453,0-2.18,0
	C595.76,536.163,595.76,535.073,595.76,533.984z"/>
<path fill-rule="evenodd" clip-rule="evenodd" fill="#FFFFFF" stroke="#3953A4" stroke-width="0.001" stroke-miterlimit="10" d="
	M545.651,555.771c0.19,1.776-7.127,2.199-5.447-1.089C542.229,552.56,544.604,553.934,545.651,555.771z"/>
<path fill-rule="evenodd" clip-rule="evenodd" fill="#FFFFFF" stroke="#3953A4" stroke-width="0.001" stroke-miterlimit="10" d="
	M630.62,567.754c6.441,3.593,2.564,19.151,1.09,25.055C629.178,586.624,631.338,575.752,630.62,567.754z"/>
<path fill-rule="evenodd" clip-rule="evenodd" stroke="#3953A4" stroke-width="0.001" stroke-miterlimit="10" d="M583.778,571.022
	c-0.475,1.34-1.395,2.237-3.268,2.179C580.985,571.86,581.905,570.963,583.778,571.022z"/>
<path fill-rule="evenodd" clip-rule="evenodd" stroke="#3953A4" stroke-width="0.001" stroke-miterlimit="10" d="M542.383,620.043
	c0.727,0,1.452,0,2.179,0c0,0.726,0,1.453,0,2.179c-0.727,0-1.452,0-2.179,0C542.383,621.496,542.383,620.769,542.383,620.043z"/>
<path fill-rule="evenodd" clip-rule="evenodd" fill="#FFFFFF" stroke="#3953A4" stroke-width="0.001" stroke-miterlimit="10" d="
	M568.526,671.242c2.496-19.924-11.008-23.85-26.143-26.145c2.003-8.527,13.527-7.533,23.967-7.625
	c2.801,1.918,4.701,4.737,7.623,6.536C575.301,656.229,570.583,662.404,568.526,671.242z"/>
<path fill-rule="evenodd" clip-rule="evenodd" stroke="#3953A4" stroke-width="0.001" stroke-miterlimit="10" d="M627.352,658.17
	c0-0.726,0-1.452,0-2.178c0.727,0,1.451,0,2.18,0c0,0.726,0,1.452,0,2.178C628.803,658.17,628.079,658.17,627.352,658.17z"/>
<path fill-rule="evenodd" clip-rule="evenodd" fill="#FFFFFF" stroke="#3953A4" stroke-width="0.001" stroke-miterlimit="10" d="
	M414.929,852.074c11.639-8.494,23.354-15.993,37.038-21.786c19.652-8.321,32.558-20.839,46.842-35.948
	c6.275-6.639,11.009-11.119,16.34-19.609c9.011-14.352,24.696-26.428,34.859-41.395c3.897-5.739,6.148-13.693,14.163-15.252
	c-2.919,19.232-16.758,27.543-29.414,37.038c10.831-5.448,20.905-10.169,33.769-16.34c4.111-1.973,8.316-5.807,11.984-6.536
	c11.096-2.205,22.887,0.776,35.949-2.18c-4.9,9.521-18.93,6.779-28.324,9.806c-9.607,3.095-15.797,10.39-21.785,15.25
	c13.891-1.12,27.711,0.478,42.482,1.089c7.906,0.329,16.943-1.883,23.965,2.18c-0.73,9.129-10.537,5.624-17.428,5.447
	c-16.316-0.42-35.607-2.25-46.844,3.268c17.668,2.305,40.164-0.221,53.379,6.536c-14.35,7.738-39.092-1.458-53.379,6.536
	c12.359,2.428,26.48,2.918,38.129,3.268c-4.246,9.768-21.717,3.76-30.502,5.447c-7.119,1.367-16.61,7.748-23.966,10.894
	c-17.88,7.644-31.156,12.697-42.484,25.055c-7.102,7.748-13.396,18.762-20.698,27.233c-14.577,16.914-30.282,33.114-46.842,49.021
	c-7.963,7.649-17.399,17.516-29.413,18.52c-10.939-13.622-14.403-32.883-13.072-58.826c1.829-35.641,15.936-57.979,31.591-90.416
	c18.431-38.187,16.418-90.693,55.557-102.398c5.563,0.689,8.432,5.602,13.072,6.535c16.03,3.229,31.278-7.908,45.753-8.715
	c10.744,8.504-5.059,24.97-2.179,37.038c1.728,7.242,8.728,10.442,19.608,10.895c-11.861,7.702-18.881,21.585-29.412,32.681
	c-6.088,6.414-14.192,12.577-19.608,19.607c-3.681,4.777-5.005,11.525-8.714,16.341c-7.807,10.133-19.028,18.11-28.324,25.056
	c-1.25-9.914,3.862-17.571,3.268-25.056c-0.689-8.685-8.22-13.771-8.714-22.876c-2.279,7.355,2.969,13.881,3.268,21.787
	c0.359,9.491-4.174,20.081-2.179,31.591C454.243,826.755,426.134,830.963,414.929,852.074z"/>
<path fill-rule="evenodd" clip-rule="evenodd" stroke="#3953A4" stroke-width="0.001" stroke-miterlimit="10" d="M650.227,676.689
	c0.602,2.415-2.078,1.551-2.178,3.268C645.336,679.514,647.985,675.734,650.227,676.689z"/>
<path fill-rule="evenodd" clip-rule="evenodd" stroke="#3953A4" stroke-width="0.001" stroke-miterlimit="10" d="M864.03,751.013
	c0,24.328,0,48.658,0,72.987c-25.967-5.565-59.543-3.843-77.344-16.341c-0.857-12.854,11.133-17.732,20.697-20.697
	c10.566-3.275,25.166-4.415,38.127-4.357c-10.404-6.934-20.525-10.045-33.77-17.43c-7.012-3.908-28.678-15.476-28.324-23.966
	c0.58-13.881,26.867-7.229,38.127-4.357C841.161,741.854,852.327,747.29,864.03,751.013z"/>
<path fill-rule="evenodd" clip-rule="evenodd" stroke="#3953A4" stroke-width="0.001" stroke-miterlimit="10" d="M397.51,246.569
	c25.886-13.921,44.304-40.536,65.725-64.123c41.059-45.209,79.509-95.693,133.053-131.451c25.533-17.048,59.336-36.49,91.375-40.076
	c9.008-1.007,27.941-3.407,30.457,6.414c-11.152,6.501-25.543,2.045-36.869,3.205c-33.371,3.418-67.834,23.835-92.977,41.681
	c-26.896,19.087-48.236,44.531-67.329,65.723c-21.683,24.07-42.868,47.505-64.123,70.536
	c-21.287,23.065-43.442,47.142-72.137,60.915c17.433-23.525,31.551-49.979,44.886-80.153
	c12.635-28.592,38.287-80.358,20.839-121.831c-7.976-18.959-32.652-29.438-60.916-19.237
	c-41.247,14.887-91.583,64.776-97.786,113.817c-4.82,38.103,18.535,67.937,59.313,51.295c23.435-9.562,54.672-44.949,64.122-70.533
	c9.255-25.057,2.95-63.396-30.458-44.886c23.889-1.884,12.846,31.108-6.412,20.84c-14.077-29.599,30.478-39.088,41.68-20.84
	c3.596,5.859,4.541,16.446,3.205,28.855c-3.083,28.64-40.397,80.32-70.534,91.374c-47.242,17.33-79.364-19.519-70.535-65.725
	c8.884-46.495,67.576-106.105,117.023-112.212c49.024-6.059,74.529,24.65,75.343,65.723c1.31,66.15-45.395,107.217-75.343,150.688
	C398.578,246.569,398.045,246.569,397.51,246.569z"/>
<path fill-rule="evenodd" clip-rule="evenodd" stroke="#3953A4" stroke-width="0.001" stroke-miterlimit="10" d="M864.03,826.179
	c0,20.697,0,41.395,0,62.093c-22.83-1.344-71.572,3.23-75.166-15.251c-2.68-13.779,15.23-24.682,27.234-31.592
	C832.456,832.014,846.452,827.507,864.03,826.179z"/>
<path fill-rule="evenodd" clip-rule="evenodd" fill="#FFFFFF" stroke="#3953A4" stroke-width="0.001" stroke-miterlimit="10" d="
	M569.036,158.402c-5.873,23.515-29.625,29.154-51.297,36.871C531.262,180.415,542.365,154.791,569.036,158.402z"/>
<path fill-rule="evenodd" clip-rule="evenodd" fill="#FFFFFF" stroke="#3953A4" stroke-width="0.001" stroke-miterlimit="10" d="
	M836.747,160.004c5.666,38.801-1.471,78.679-41.682,76.947c-20.979-17.508,8.23-32.028,22.445-38.472
	C812.512,177.988,830.413,173.679,836.747,160.004z"/>
<path fill-rule="evenodd" clip-rule="evenodd" fill="#FFFFFF" stroke="#3953A4" stroke-width="0.001" stroke-miterlimit="10" d="
	M2,1067.479c1.33,0.123,2.58,0.326,2.179,2.179c-0.726,0-1.453,0-2.179,0C2,1068.931,2,1068.204,2,1067.479z"/>
<path fill-rule="evenodd" clip-rule="evenodd" fill="#FFFFFF" stroke="#3953A4" stroke-width="0.001" stroke-miterlimit="10" d="
	M11.804,1090.354c2.907,1.811,1.18,2.925,3.268,6.536C12.761,1095.8,9.794,1092.494,11.804,1090.354z"/>
<path fill-rule="evenodd" clip-rule="evenodd" stroke="#3953A4" stroke-width="0.001" stroke-miterlimit="10" d="M2,1094.712
	c1.473,0.343,2.081,1.552,4.357,1.09c0,1.089,0,2.179,0,3.269c-2.222-0.608-2.136-3.278-4.357-1.09
	C2,1096.891,2,1095.802,2,1094.712z"/>
<path fill-rule="evenodd" clip-rule="evenodd" stroke="#3953A4" stroke-width="0.001" stroke-miterlimit="10" d="M2,1100.159
	c3.821-0.959,1.898,3.591,0,3.268C2,1102.337,2,1101.248,2,1100.159z"/>
<path fill-rule="evenodd" clip-rule="evenodd" fill="#FFFFFF" stroke="#3953A4" stroke-width="0.001" stroke-miterlimit="10" d="
	M10.715,1107.784c3.282,1.315-0.166,4.762-3.269,3.269C7.113,1108.541,10.595,1109.843,10.715,1107.784z"/>
<path fill-rule="evenodd" clip-rule="evenodd" fill="#FFFFFF" stroke="#3953A4" stroke-width="0.001" stroke-miterlimit="10" d="
	M13.983,1109.964c0.726,0,1.453,0,2.179,0c-0.67,0.97-1.316,1.948,0,2.179c-0.798,1.938-1.98,0.155-3.269,0
	C13.101,1111.258,13.987,1111.056,13.983,1109.964z"/>
<path fill-rule="evenodd" clip-rule="evenodd" fill="#FFFFFF" stroke="#3953A4" stroke-width="0.001" stroke-miterlimit="10" d="
	M8.536,1113.232C11.839,1109.203,12.206,1116.539,8.536,1113.232L8.536,1113.232z"/>
<path fill-rule="evenodd" clip-rule="evenodd" fill="#FFFFFF" stroke="#3953A4" stroke-width="0.001" stroke-miterlimit="10" d="
	M669.838,1115.698c-2.629,12.986-7.83,23.4-22.879,23.965c-5.863-9.584,4.697-19.406,7.627-27.232
	C660.817,1112.37,664.741,1114.621,669.838,1115.698z"/>
<path fill-rule="evenodd" clip-rule="evenodd" stroke="#3953A4" stroke-width="0.001" stroke-miterlimit="10" d="M2,1177.503
	c0-8.715,0-17.43,0-26.145c16.73-6.281,38.521-19.764,64.272-17.43c7.692,0.697,21.004,5.157,21.787,14.161
	C90.171,1172.395,31.986,1179.646,2,1177.503z"/>
<path fill-rule="evenodd" clip-rule="evenodd" stroke="#3953A4" stroke-width="0.001" stroke-miterlimit="10" d="M2,1185.129
	c21.506,1.094,60.55,18.931,56.646,35.948c-4.166,18.159-49.011,0.995-56.646-1.09C2,1208.367,2,1196.749,2,1185.129z"/>
<path fill-rule="evenodd" clip-rule="evenodd" fill="#FFFFFF" stroke="#3953A4" stroke-width="0.001" stroke-miterlimit="10" d="
	M401.856,1504.596c-0.641,29.501-5.498,64.22-13.072,90.417c-5.226-10.026-5.078-25.423-9.804-35.949
	C389.741,1544.045,389.306,1517.828,401.856,1504.596z"/>
<path fill-rule="evenodd" clip-rule="evenodd" fill="#FFFFFF" stroke="#3953A4" stroke-width="0.001" stroke-miterlimit="10" d="
	M375.712,1563.422c0.406,14.712,8.87,28.41,8.714,42.484c-0.122,11.067-7.534,20.477-8.714,31.591
	c-7.416-18.003-11.043-39.793-16.341-59.913C364.161,1572.204,367.916,1565.793,375.712,1563.422z"/>
<path fill-rule="evenodd" clip-rule="evenodd" fill="#FFFFFF" stroke="#3953A4" stroke-width="0.001" stroke-miterlimit="10" d="
	M356.104,1585.208c5.27,16.518,9.237,34.337,13.072,52.289c-7.293-1.089-7.313-9.944-9.805-15.251
	c-2.688-5.724-6.776-11-8.715-16.34C352.524,1599.06,355.062,1592.883,356.104,1585.208z"/>
<path fill-rule="evenodd" clip-rule="evenodd" fill="#FFFFFF" stroke="#3953A4" stroke-width="0.001" stroke-miterlimit="10" d="
	M347.389,1609.174c5.712,6.271,8.248,15.719,11.982,23.967c-8.164-3.094-18.835-3.68-30.501-3.268
	C334.229,1622.159,342.935,1617.792,347.389,1609.174z"/>
<path fill-rule="evenodd" clip-rule="evenodd" stroke="#3953A4" stroke-width="0.001" stroke-miterlimit="10" d="M397.499,1610.264
	c-1.737,0.805,0.249,5.332-3.268,4.357C394.689,1612.538,394.625,1609.932,397.499,1610.264z"/>
<path fill-rule="evenodd" clip-rule="evenodd" stroke="#3953A4" stroke-width="0.001" stroke-miterlimit="10" d="M388.784,1628.783
	c3.263,0.717-1.042,2.328,0,4.357C385.138,1632.155,387.833,1630.704,388.784,1628.783z"/>
<path fill-rule="evenodd" clip-rule="evenodd" fill="#FFFFFF" stroke="#3953A4" stroke-width="0.001" stroke-miterlimit="10" d="
	M216.667,1661.464c0-1.09,0-2.18,0-3.269c1.867,1.401,4.283,2.252,4.357,5.446C218.859,1663.628,219.639,1660.67,216.667,1661.464z"
	/>
<path fill-rule="evenodd" clip-rule="evenodd" fill="#FFFFFF" stroke="#3953A4" stroke-width="0.001" stroke-miterlimit="10" d="
	M450.877,1676.714c2.504,1.128,5.012,2.25,6.536,4.358c-0.269,1.184-2.166,0.738-2.179,2.179
	C453.038,1681.816,451.548,1679.674,450.877,1676.714z"/>
<path fill-rule="evenodd" clip-rule="evenodd" stroke="#3953A4" stroke-width="0.001" stroke-miterlimit="10" d="M413.839,1686.519
	c-2.277,0.461-2.884-0.747-4.357-1.09C409.612,1682.336,414.127,1683.335,413.839,1686.519z"/>
<path fill-rule="evenodd" clip-rule="evenodd" fill="#FFFFFF" stroke="#3953A4" stroke-width="0.001" stroke-miterlimit="10" d="
	M238.454,1687.608c2.381,0.16,2.339,2.744,2.178,5.446C236.972,1694.173,238.936,1689.666,238.454,1687.608z"/>
<path fill-rule="evenodd" clip-rule="evenodd" fill="#FFFFFF" stroke="#3953A4" stroke-width="0.001" stroke-miterlimit="10" d="
	M465.039,1715.932c2.441-2.886,12.397-1.082,2.178,0C467.205,1715.932,463.927,1717.244,465.039,1715.932z"/>
<path fill-rule="evenodd" clip-rule="evenodd" fill="#FFFFFF" stroke="#3953A4" stroke-width="0.001" stroke-miterlimit="10" d="
	M462.86,1715.932c-0.475,1.34-1.393,2.236-3.268,2.178C460.067,1716.769,460.985,1715.873,462.86,1715.932z"/>
<path fill-rule="evenodd" clip-rule="evenodd" stroke="#3953A4" stroke-width="0.001" stroke-miterlimit="10" d="M187.254,1647.302
	C192.496,1648.507,183.588,1653.146,187.254,1647.302L187.254,1647.302z"/>
<path fill-rule="evenodd" clip-rule="evenodd" stroke="#3953A4" stroke-width="0.001" stroke-miterlimit="10" d="M829.728,1253.289
	c-11.643-6.955-25.027-18.308-43.574-14.161c-7.611,11.662,11.389,25.55,20.697,34.858c10.619,10.621,20.41,19.043,25.055,23.967
	c-13.314-3.435-29.227-10.3-46.842-13.072c-5.732-0.902-12.303-0.459-17.428-2.179c-5.877-1.974-16.473-13.067-23.969-18.52
	c-17.471-12.712-30.762-20.761-55.555-29.413c-7.318-2.553-28.514-10.767-30.502,1.09c-1.643,9.782,21.32,21.572,28.322,26.145
	c12.418,8.109,22.277,13.656,33.77,19.608c-19.329,1.767-43.913,5.184-53.506,20.821c0.418-0.108,0.868-0.173,1.361-0.173
	c4.224,0,5.68,4.29,4.371,7.25c1.231,2.786,0.011,6.744-3.657,7.202c11.564,4.84,33.244,2.379,43.806,4.116
	c-0.693,2.492-2.16,6.571,0,8.714c17.141,16.631,48.932,18.609,78.434,22.877c-9.404,3.938-27.98,3.972-27.234,15.251
	c0.887,13.371,61.609,25.146,83.881,17.43c-7.164,8.043-41.629,20.841-34.859,33.77c7.527,14.379,41.15-3.506,52.289-6.536v-133.99
	C854.437,1268.739,842.455,1260.893,829.728,1253.289z"/>
<path fill-rule="evenodd" clip-rule="evenodd" stroke="#3953A4" stroke-width="0.001" stroke-miterlimit="10" d="M838.688,1532.919
	c0.275-6.594,5.885-10.604,6.533-16.34c1.473-12.972-5.104-22.712-10.893-29.412c-13.32-15.414-41.725-22.859-44.664-40.307
	c-1.082-6.424,2.869-12.844,1.09-19.608c-0.697-2.651-4.406-7.466-5.445-8.715c-18.241-21.869-65.387-9.698-75.797-42.033
	c-1.766-1.34-2.289-3.881-1.571-5.934c-3.824-5.906-3.981-12.182-9.78-16.304c-8.516-6.052-23.902-6.192-35.949-10.894
	c-17.93-6.997-33.504-13.385-30.502-40.306c-9.236-10.01-26.07-12.423-41.395-16.342c21.617-35.391,42.639-71.379,61.002-110.023
	c8.406-4.461,23.645-1.929,27.234,6.535c4.029,9.502-0.307,18.854,1.09,26.145c5.266,27.484,56.49,15.818,47.932-20.697
	c-4.857,8.393-4.268,18.367-17.432,17.429c-20.453-1.454-3.383-30.862-6.533-47.931c-1.494-8.088-6.984-16.462-10.895-19.607
	c-3.594-2.893-7.861-5.17-19.609-5.447c0.029-6.508,3.664-9.409,4.357-15.252c8.477-0.774,15.459,1.035,25.057,0
	c36.516-3.934,68.998-38.85,69.719-75.165c0.553-27.966-15.781-49.728-29.414-70.808c-16.373-25.319-31.152-53.096-28.322-92.595
	c4.484-62.594,57.006-103.805,56.646-165.581c-0.166-28.573-15.666-46.697-44.664-56.646c1.756-22.392,21.02-41.928,10.893-64.272
	c-3.312-7.313-8.268-11.949-16.338-16.34c-5.859-17.745-11.396-35.81-23.967-46.842c-0.129-3.138,0.594-7.131-1.09-8.715
	c-0.074-6.716-11.545-6.991-9.805-11.983c4.801-1.138,8.752-2.107,13.072-1.089c14.621,19.513,14.506,53.762,43.574,58.825
	c0.043-4.409-8.609-5.947-11.982-9.804c-14.611-16.704-6.424-54.22-26.145-65.361c3.559-3.794,7.842-5.042,11.982-10.894
	c5.305-7.494,5.803-17.449,15.252-19.608c5.414-1.238,13.566,0.232,18.518,4.357c-3.51-11.217-12.928-17.812-26.143-14.162
	c-15.631,4.318-30.395,25.157-44.664,25.055c-19.15-0.136-38.008-39.444-68.629-40.306c-14.283-0.402-22.863,7.226-32.682,8.714
	c-4.396,0.667-6.553-1.09-11.98,0c-11.51,2.312-21.373,7.661-23.967,22.877c-19.353-10.626-36.965,16.12-33.771,38.127
	c0.83,5.714,6.91,11.707,6.537,16.34c-0.547,6.791-11.196,10.482-16.34,17.43c-3.773,5.095-8.771,13.679-6.536,23.966
	c2.659,12.245,19.153,10.389,25.055,19.608c-3.189,9.789-14.099,25.808,0,31.591c-18.395,6.663-36.177,19.74-31.591,45.753
	c-5.885,3.159-12.151,4.911-18.52,9.805c-26.268,20.185-26.903,59.439-41.395,92.595c-18.721,42.83-35.806,67.346-32.68,117.65
	c1.076,17.324,6.193,32.693,14.162,43.574c26.14,5.768,41.546-29.337,57.736-35.949c-7.302,39.634-26.578,72.42-29.413,117.65
	c-0.815,13.003-0.058,24.82-1.089,39.217c-2.038,28.445-11.763,56.132-13.072,84.969c-1.377,30.314,4.24,54.058,9.804,78.434
	c3.724,16.315,9.503,32.479,10.894,50.109c-14.63-1.322-32.189-6.919-44.664-1.09c-8.015,3.748-8.239,11.53-15.25,15.252
	c-12.582,1.045-22.835-2.255-33.77-5.446c-11.083-3.236-23.896-9.889-33.77-7.626c-10.684,2.448-15.376,16.794-26.145,18.52
	c-15.02,2.405-24.013-14.104-35.948-16.341c-28.193-5.284-49.242,23.47-70.808,20.697c-9.384-1.206-13.723-11.336-27.234-10.893
	c-14.354,0.471-17.723,12.473-29.413,19.608c-16.712,10.201-47.2,5.578-49.021,29.412c-0.548,7.169,5.494,16.358,4.357,21.787
	c-1.598,7.631-23.39,17.9-31.591,25.055c-12.92,11.271-27.865,27.239-18.519,46.843c-7.722,20.481-33.293,30.533-26.145,57.735
	c3.358,12.777,20.846,18.431,22.876,30.501c2.875,17.096-15.293,34.455-4.357,54.468c7.443,13.623,21.473,16.383,37.038,27.234
	c9.766,6.807,17.557,16.088,23.966,18.52c8.921,3.384,18.824,1.62,26.145,5.445c9.651,5.046,13.56,19.644,23.966,26.146
	c13.68,8.547,30.464,7.017,49.02,10.893c5.291,1.106,11.911,1.655,16.341,3.269c4.255,1.551,12.203,6.765,13.072,7.627
	c4.199,4.158,6.428,13.485,11.983,14.161c-3.312,1.371-3.823,2.82-1.09,5.446c5.479,3.728,2.357-3.964,6.537-4.358
	c4.772,6.1,10.835,15.767,3.268,22.877c2.727,4.796,3.771,6.98,8.714,10.894c-2.802,2.565-10.128-2.482-8.714,6.536
	c-5.266-2.748,2.135-12.067-6.536-11.983c-3.137,4.202,5.175-0.792,1.089,4.358c2.024,2.68-2.744,2.438,0,6.536
	c-7.355-4.138-1.852,0.142-6.536,3.268c-3.263-0.717,1.042-2.329,0-4.357c-3.368,0.021-8.133,5.427-2.179,5.447
	c-4.33,1.48-5.503,6.117-8.715,8.714c-5.571-1.117,4.26-3.018,2.179-7.624c-3.071,0.576-9.184-1.452-14.162-2.18
	c1.499,3.298-0.519,3.893,0,8.715c7.088-0.143,3.653-3.985,11.982-5.447c-3.274,2.173-2.481,8.413-5.446,10.895h397.614
	c0.195-4.881-10.342-9.545-13.072-4.358c-3.789-3.513-9.025-1.426-15.252,0c-8.893-3.434-18.695-2.089-28.322-2.178
	c-7.657-0.071-14.529-0.714-21.787-1.09c-8.688-0.449-20.987,1.032-26.145,0c-0.742-0.149-1.167-2.19-1.089-2.179
	c-2.267-0.346-5.945,3.562-6.536-1.09c-7.194,0.957-10.726,0.426-15.251-1.088c9.25-2.933,21.939,2.01,34.859,2.178
	c15.072,0.196,35.657-4.384,41.396-13.072c3.89-5.892,1.337-13.805,5.447-21.786c16.688-3.137,26.901-18.427,44.663-20.699
	c20.551-2.626,39.848,8.813,58.824,10.894c14.311,1.569,21.629-6.356,29.414-7.625c17.195-2.801,30.658,1.248,46.84,0
	c24.295-1.871,50.752-1.742,64.273-19.608c3.221-4.254,3.611-10.728,8.715-16.339c4.928-5.421,14.594-8.702,23.967-11.983
	c8.451-2.96,21.676-5.735,25.055-10.894c6.686-10.21-1.057-36.206-4.359-43.574C848.776,1551.905,838.262,1543.024,838.688,1532.919
	z M784.219,1456.665c5.699,9.132,17.607,16.253,29.412,25.055c10.604,7.907,23.844,19.061,23.967,30.503
	c0.07,6.725-5.869,9.677-6.537,17.429c-66.875,23.843-132.822,51.465-199.352,78.433c-9.355,3.794-19.695,9.258-28.322,10.895
	c-5.012,0.951-10.941-0.465-16.342,0c-22.744,1.959-46.004,17.22-71.896,9.805c8.892-10.05,21.596-15.609,32.68-22.877
	c53.582-35.137,109.681-72.443,165.582-106.757c23.322-14.314,47.695-27.907,69.719-43.574
	C784.057,1455.375,784.157,1456.001,784.219,1456.665z M782.04,1431.61c1.732,6.409-1.99,13.495,0,21.786
	c-97.631,54.153-188.424,115.139-279.963,175.387c-13.597,0.228-26.746,5.397-39.217,3.268c-1.237-4.195,4.331-5.802,6.536-7.625
	c19.376-16.016,41.455-32.483,62.093-49.021c23.04-18.462,46.792-37.504,70.808-55.558c49.045-36.87,101.699-75.759,149.24-107.846
	C765.764,1413.78,778.827,1419.722,782.04,1431.61z M699.249,1374.963c9.268,17.968,20.26,34.211,46.844,34.86
	c-100.943,67.546-194.586,142.383-288.679,216.781c-8.998-4.075-14.567-11.579-20.697-18.521
	C525.266,1531.417,613.192,1454.125,699.249,1374.963z M661.122,1349.908c12.686,5.009,29.734,5.288,37.039,17.43
	c-41.373,41.447-87.691,79.044-131.811,118.74c-41.086,36.962-82.547,73.769-125.277,110.023c-2.084,1.768-3.633,7.131-7.625,5.448
	c-4.06-26.983,5.962-43.686,17.43-63.183c6.968-11.849,12.859-24.364,20.697-33.771c15.698-18.837,34.828-37.929,51.2-56.646
	c35.48-40.563,71.462-79.701,103.488-118.739C634.192,1337.918,647.522,1344.538,661.122,1349.908z M624.083,1305.246
	c-0.049,5.1,2.434,11.482,1.09,16.339c-1.307,4.731-11.129,13.771-16.34,19.608c-38.648,43.305-81.601,91.006-118.739,132.901
	c8.993-20.581,22.408-39.318,32.681-62.093c5.005-11.098,7.98-23.282,13.072-34.859c2.509-5.705,5.85-10.49,7.626-16.341
	c2.087-6.871,1.931-15.894,5.446-21.787c10.38-17.399,29.172-32.424,38.127-49.021
	C598.366,1296.104,612.704,1299.195,624.083,1305.246z M677.461,1138.575c21.816,2.468,24.312,31.132,17.432,53.377
	c-2.984-17.319,1.637-39.59-13.074-43.574c-16.203-4.388-24.986,9.718-38.125,14.163c11.564-0.062,19.775-12.898,37.037-10.895
	c18.678,11.46,1.066,65.018,34.859,57.735c-2.258,7.333-21.297,12.226-27.234,4.358c-5.578-7.393-0.861-19.389-2.18-27.234
	c-1.277-7.62-6.426-16.479-16.338-18.519c-25.746-5.295-35.037,14.756-59.916,16.34c15.428-7.811,26.682-19.797,32.682-37.038
	C655.325,1144.844,665.254,1137.192,677.461,1138.575z M654.586,1112.431c6.23-0.061,10.154,2.19,15.252,3.268
	c-2.629,12.986-7.83,23.4-22.879,23.965C641.096,1130.079,651.657,1120.257,654.586,1112.431z M764.61,1027.461
	c1.092,4.221,1.846,13.544,1.09,20.697c-3.139,29.687-33.152,60.394-65.361,63.183c-12.32,1.066-24.154-2.231-37.037-4.357
	c7.035-2.658,18.332-0.191,25.055,1.089c14.479-4.132,29.176-6.526,40.307-16.341c23.791-20.978,38.383-67.035,16.34-102.398
	C752.575,997.227,760.739,1012.51,764.61,1027.461z M709.053,854.254c-3.957-10.795,0.646-21.166,1.088-31.592
	c1.66-39.094-11.26-72.152-29.41-93.685c10.506,20.785,21.842,39.981,23.965,67.54c1.83,23.746-3.074,49.631-1.088,77.344
	c2.17,30.323,9.713,56.814,19.607,77.345c12.109,25.127,32.619,46.294,28.322,88.236c-4.373,42.693-37.703,67.916-89.326,63.183
	c2.363-11.971,14.008-12.138,21.787-15.249c31.693-12.683,60.588-50.966,43.574-96.954c-2.082-5.629-6.91-11.544-8.715-18.519
	c-1.631-6.302-0.354-13.229-1.09-19.607c-3.693-31.953-19.6-62.01-22.875-91.507c-0.654-2.83,0.436-3.92,3.268-3.268
	c-1.707-2.287-4.525-3.463-5.447-6.536c-10.893-58.954-8.297-114.911-34.859-154.688c-4.15-6.215-9.027-11.71-14.16-17.431
	c-4.211-4.689-12.076-9.502-15.252-15.25c-9.098-16.461,1.445-37.35,4.355-51.2c2.586,22.833,5.521,45.317,16.342,59.915
	c-10.707-22.801-9.582-51.223-9.805-80.612c5.172,15.643,1.99,22.856,3.27,38.127c3.438,41.101,25.295,61.188,49.02,82.791
	c20.039,18.246,40.572,40.938,31.592,79.521c2.264-4.634,3.203-10.594,4.357-16.34c2.529-2.893,2.916,2.892,5.447,0
	c0.465-3.009-4.062-1.023-4.357-3.268c0.32-52.224-54.041-69.131-71.898-106.758c-6.686-14.088-9.406-33.777-9.805-56.646
	c-0.033-1.949-1.215-2.302-1.088-4.357c0.09-1.474,2.18-3.241,2.178-3.269c-0.197-2.353-4.174-7.762-3.268-13.072
	c11.727,23.92,14.256,46.192,26.145,64.271c6.225,9.463,13.307,17.849,21.787,23.967c10.816,7.805,26.279,12.633,37.039,22.877
	c-7.795-13.634-31.217-21.072-43.576-33.771c10.758,6.044,23.818,13.873,34.861,22.877c13.639,11.125,27.721,25.727,26.145,50.11
	C744.5,780.18,710.811,812.135,709.053,854.254z M670.926,1087.376c17.258-36.122,40.863-65.894,46.842-113.294
	c5.822,14.772,12.113,32.473,10.895,49.021C726.165,1057.022,697.618,1077.845,670.926,1087.376z M620.817,664.706
	c-20.85-2.935-28.328,22.056-45.754,11.983c3.254-18.352,13.455-43.734-11.983-45.753c2.874-4.026,2.139-11.659,2.178-18.52
	c10.627,5.515,18.84,13.754,32.682,10.894c13.443-2.777,20.498-20.117,26.143-30.501
	C627.178,615.918,613.409,640.61,620.817,664.706z M542.383,645.098c2.003-8.527,13.527-7.533,23.967-7.625
	c2.801,1.918,4.701,4.737,7.623,6.536c1.328,12.22-3.391,18.396-5.447,27.233C571.022,651.318,557.518,647.393,542.383,645.098z
	 M548.918,632.025c11.251-12.714-2.013-25.957-9.804-32.681c0.56-4.887,3.402-7.491,5.447-10.893
	c3.605-1.247,2.804,4.163,4.357,6.536c2.563,3.917,7.363,6.113,8.715,9.804c2.504,6.839,0.999,16.05,0,25.056
	C555.49,631.334,551.411,630.887,548.918,632.025z M612.102,606.971c-10.08,12.907-21.949,16.061-39.219,5.446
	c-17.585-10.81-24.806-37.45-37.037-53.377c7.728,0.35,22.478,0.564,23.966-8.715c-4.436-11.554-25.068-6.147-23.966,6.536
	c-21.52-35.207,12.081-80.984,49.021-64.271c10.281,4.652,12.586,15.254,23.965,20.697c5.297,17.623,19.932,41.321,16.34,66.451
	C623.877,588.808,617.977,599.446,612.102,606.971z M540.204,554.682c2.025-2.122,4.401-0.748,5.447,1.089
	C545.841,557.547,538.524,557.97,540.204,554.682z M630.62,567.754c6.441,3.593,2.564,19.151,1.09,25.055
	C629.178,586.624,631.338,575.752,630.62,567.754z M742.823,672.332c12.814,7.514,23.611,21.952,21.787,46.842
	c-2.424,33.082-20.096,60.459-31.59,83.881c-1.715,3.49-5.977,12.594-9.805,21.786c-1.578,3.79-9.064,22.98-5.447,9.805
	c6.646-24.203,13.682-33.413,18.518-43.574c4.805-10.089,19.785-35.119,16.342-63.183c-3.588-29.246-27.047-43.525-49.02-57.735
	c-11.996-7.758-26.008-15.566-33.77-28.323c-11.742-19.291-7.83-38.891-22.879-61.004c13.795,7.419,41.299,9.413,47.934,28.323
	c2.711,7.731-0.658,17.489,2.178,28.323c-9.184-10.789-11.447-28.495-20.697-39.217c5.822,13.521,11.191,30.288,19.607,44.664
	c2.871,4.902,5.682,10.371,8.715,13.072C714.583,664.792,731.133,665.477,742.823,672.332z M712.321,648.365
	c-14.441-7.41-0.41-51.567-21.787-55.556c12.312-0.8,23.264,6.027,26.145,16.34C720.155,621.592,711.641,634.844,712.321,648.365z
	 M722.125,650.545c-0.846,1.986-1.172-0.653-1.088-2.18C717.819,646.805,723.565,647.53,722.125,650.545z M557.634,454.461
	c5.341-4.034,10.367-2.391,16.339-3.268c12.342-1.812,24.414-8.777,35.949-8.715c35.516,0.19,49.201,57.968,88.238,33.77
	c1.453,6.194,3.633-0.776,6.535,2.179c3.619-0.486-1.023-1.664,1.09-6.537c2.904,0.963,1.309-2.154,2.178-3.267
	c3.281-4.2,9.539-5.743,13.074-9.805c2.381,0.737-2.064,3.621-3.27,4.358c-2.076,5.054-4.867,14.421-9.805,13.072
	c2.365,2.266-0.133,3.521-1.088,5.447c-4.947,0.588-3.775,2.222-10.895,5.447c-3.176,1.438-6.539,1.738-10.895,3.268
	c-6.525,2.293-12.111,6.481-18.518,5.446c-14.637-2.362-18.229-28.327-39.217-31.591c-12.787-1.989-21.135,1.667-30.502,7.625
	c15.85-4.143,27.436-7.819,39.217,1.09c11.084,8.381,14.283,28.453,31.592,29.412c8.275,0.46,14.463-5.876,22.875-6.536
	c11.873-0.931,18.586,3.99,20.697,17.43c-5.203-5.401-7.029-11.022-14.16-11.982c-10.529-1.419-20.631,10.752-30.502,5.447
	c7.6,6.924,20.643,8.406,25.055,18.519c-10.648-3.513-22.557-5.767-28.322-14.162c-0.178,18.316,21.061,14.895,31.592,22.876
	c5.566,4.219,5.871,9.083,10.893,14.162c-8.693-1.218-16.223-4.113-23.967-6.536c-12.811-4.008-28.342-10.508-33.77-23.966
	c-6.156-15.265-5.252-40.12-27.232-40.306c-8.557-0.072-14.498,5.212-18.52,11.982c5.193-5.346,12.389-9.272,20.697-7.625
	c20.52,4.067,14.777,40.504,28.322,53.378c19.865,18.88,55.488,9.213,63.184,37.038c-23.178-6.235-48.219-10.606-62.094-26.144
	c2.156,3.625,4.738,8.25,7.625,10.893c16.291,14.915,55.205,15.959,68.631,33.771c11.672,15.484,0.875,37.545-5.447,55.557
	c-4.133-10.77,3.838-19.855,2.178-33.771c-4.562-38.255-53.955-21.68-82.789-44.663c-15.707-12.519-14.934-29.517-27.234-51.2
	c3.486,1.233,7.225,2.215,11.982,2.179c-11.023-5.316-19.334-13.348-28.324-20.698c4.049-2.489,10.836-2.236,17.432-2.179
	c10.518,6.912,12.951,21.908,21.787,30.502c-4.854-13.667-8.109-28.93-20.697-34.859c-10.529-0.973-16.332,2.105-22.877,0
	c-1.211-3.42-0.512-2.879,1.088-5.447c-7.541,7.272-17.953-5.859-28.322-2.179c-3.435,0.166-2.119-4.417-4.358-5.446
	c-1.742,1.596,3.612,7.141-3.268,6.536c1.669-11.039,10.393-15.024,20.698-17.429c-9.791-4.617-21.395,2.713-25.055,10.894
	c0.012-14.155,18.618-19.143,33.77-21.788c-15.113-2.032-32.741,2.84-37.039,15.251
	C550.438,466.849,558.661,462.409,557.634,454.461z M531.489,623.311c-0.151,3.48-4.86,2.402-6.536,4.357
	c4.822,2.967,14.065,1.023,14.161-4.357c-2.475-10.598-15.51-10.633-21.787-17.43c-2.021-9.017,7.54-13.533,6.536-22.876
	c-1.333-12.4-21.614-10.198-26.145-19.608c-7.542-15.663,14.299-26.005,23.965-35.949c2.436-6.729-5.118-13.871-6.536-21.787
	c-3.04-16.963,5.367-33.699,21.787-34.86c-1.003,3.354-4.359,4.355-6.536,6.537c4.012-2,11.226-1.326,16.34-1.089
	c-8.363,2.894-11.572,10.941-16.34,17.43c4.694-2.47,14.204-14.492,23.965-11.983c-0.178,1.266,0.241,1.938,1.09,2.178
	c-1.245,8.268-10.923,8.546-17.43,14.162c-1.822,1.573-2.225,4.17-4.357,6.537c-1.702,1.889-5.521,3.024-6.536,4.357
	c-1.021,1.342-0.05,7.895-1.09,1.089c-2.123-0.537-3.919,5.406,0,4.358c-9.343,27.16,7.041,51.938,17.43,69.718
	c-4.966,6.245-12.138,10.975-6.536,20.698c4.854,8.429,22.887,15.653,3.268,26.145c3.591,2.173,0.234,1.719,0,5.446
	c-7.467,3.51-23.076,17.668-27.234,2.179c4.453-3.209,9.955-4.688,16.341-3.268c-7.375-7.612-19.363-0.559-19.608,5.446
	c-0.549,13.43,21.886,9.524,30.501,3.269c2.358,9.263,18.346,4.894,22.876,11.983c1.763,4.045,0.905,10.714,1.09,16.34
	c2.133,4.765,6.143,7.656,8.713,11.982c23.131,6.517,27.492-14.43,47.934-14.161c-17.256,12.976-38.637,50.878-70.809,31.591
	c1.067-10.159,14.907-39.732-5.446-42.484c-13.801-1.866-24.521,13.234-43.574,7.625c-3.283-2.527-6.187-5.432-8.714-8.715
	C490.305,632.664,510.404,615.285,531.489,623.311z M442.162,901.096c-7.963,7.649-17.399,17.516-29.413,18.52
	c-10.939-13.622-14.403-32.883-13.072-58.826c1.829-35.641,15.936-57.979,31.591-90.416c18.431-38.187,16.418-90.693,55.557-102.398
	c5.563,0.689,8.432,5.602,13.072,6.535c16.03,3.229,31.278-7.908,45.753-8.715c10.744,8.504-5.059,24.97-2.179,37.038
	c1.728,7.242,8.728,10.442,19.608,10.895c-11.861,7.702-18.881,21.585-29.412,32.681c-6.088,6.414-14.192,12.577-19.608,19.607
	c-3.681,4.777-5.005,11.525-8.714,16.341c-7.807,10.133-19.028,18.11-28.324,25.056c-1.25-9.914,3.862-17.571,3.268-25.056
	c-0.689-8.685-8.22-13.771-8.714-22.876c-2.279,7.355,2.969,13.881,3.268,21.787c0.359,9.491-4.174,20.081-2.179,31.591
	c-18.421,13.896-46.53,18.104-57.735,39.216c11.639-8.494,23.354-15.993,37.038-21.786c19.652-8.321,32.558-20.839,46.842-35.948
	c6.275-6.639,11.009-11.119,16.34-19.609c9.011-14.352,24.696-26.428,34.859-41.395c3.897-5.739,6.148-13.693,14.163-15.252
	c-2.919,19.232-16.758,27.543-29.414,37.038c10.831-5.448,20.905-10.169,33.769-16.34c4.111-1.973,8.316-5.807,11.984-6.536
	c11.096-2.205,22.887,0.776,35.949-2.18c-4.9,9.521-18.93,6.779-28.324,9.806c-9.607,3.095-15.797,10.39-21.785,15.25
	c13.891-1.12,27.711,0.478,42.482,1.089c7.906,0.329,16.943-1.883,23.965,2.18c-0.73,9.129-10.537,5.624-17.428,5.447
	c-16.316-0.42-35.607-2.25-46.844,3.268c17.668,2.305,40.164-0.221,53.379,6.536c-14.35,7.738-39.092-1.458-53.379,6.536
	c12.359,2.428,26.48,2.918,38.129,3.268c-4.246,9.768-21.717,3.76-30.502,5.447c-7.119,1.367-16.61,7.748-23.966,10.894
	c-17.88,7.644-31.156,12.697-42.484,25.055c-7.102,7.748-13.396,18.762-20.698,27.233
	C474.428,868.988,458.722,885.188,442.162,901.096z M443.251,1226.812c-8.069-29.422-16.151-58.176-14.162-96.952
	c1.812-35.329,11.335-63.063,13.072-101.31c0.212-4.656,0.704-13.212,1.089-20.698c1.16-22.545,6.889-41.232,13.072-59.914
	c6.31-19.065,14.426-38.552,16.34-56.646c0.36-3.396-0.923-7.625,0-10.894c3.788-13.412,21.674-21.225,26.145-32.682
	c28.092,4.098,41.368-15.982,54.467-30.501c-14.429,6.634-25.977,25.583-50.11,26.145c6.083-11.573,15.851-23.591,29.413-30.502
	c5.871-2.991,16.784-4.446,23.966-7.626c6.654-2.945,12.862-10.234,20.698-11.982c13.283-2.965,34.535,5.029,33.77-13.072
	c6.197,0.389,11.889,0.27,14.16-3.268c-0.146-3.484,1.076-8.337-3.268-7.627c4.568-3.421,13.211-2.768,14.162-9.803
	c-4.654-9.535-24.27-6.492-38.127-7.626c-6.035-0.493-14.855-2.61-20.697,1.09c3.859-13.21,36.082-7.487,42.484-21.788
	c-2.268-8.675-14.223-2.875-22.877-2.179c-14.076,1.134-27.471,1.097-33.77,8.716c-1.151-4.085,3.688-11.54,5.446-16.341
	c1.445-4.071-4.539-6.239-2.176-7.625c19.998,0.317,32.227-11.575,43.572-22.877c6.008-5.983,11.953-14.399,17.43-14.161
	c9.113,0.395,10.383,12.536,16.342,18.52c0.679,1.87,1.503-0.574,0.425-1.018c-0.142-0.024-0.28-0.059-0.425-0.072
	c0.169-0.009,0.306,0.022,0.425,0.072c4.298,0.737,7.389,6.287,9.378,9.731c17.691,30.648,21.547,74.488,28.322,117.65
	c3.771,24.02,7.158,48.228,13.074,70.809c7.168,27.369,18.645,49.499,16.338,81.7c-2.277,31.793-18.738,58.67-31.59,82.791
	c-13.688,25.691-26.006,49.527-41.395,71.896c-0.334,3.404,3.146-2.769,3.268,1.09c-3.74,20.591-8.637,40.023-27.234,45.753
	c1.719-4.092,5.152-6.466,6.537-10.893c-8.268,2.269-10.42,20.075-25.057,19.607c4.203-6.691,10.848-10.94,14.162-18.52
	c-10.262,4.268-16.184,22.304-34.859,21.788c9.441-11.258,24.23-17.166,29.412-32.682c-3.939-0.283-8.523,8.161-10.893,13.073
	c-10.484,4.405-15.752,14.024-26.145,18.519c-0.041-11.829,11.482-15.446,17.43-21.786c6.682-7.125,9.982-15.975,14.16-26.145
	c-6.105,3.879-12.83,21.782-28.322,16.339c3.252-9.089,14.273-7.917,19.609-15.251c2.873-3.951,1.717-10.017,4.357-14.161
	c1.844-2.896,9.869-9.299,13.07-11.981c4.615-3.868,9.455-7.07,15.252-8.716c0.771,4.039-1.861,4.675-1.09,8.716
	c9.176-6.368,12.174-19.622,15.252-31.592c8.203-31.901,6.352-73.061,14.16-106.757c3.012-12.99,9.104-26.829,8.715-35.949
	c-0.381-8.969-7.09-20.352-11.982-28.323c-3.75-6.109-14.684-16.201-15.252-23.965c-0.303-4.168,3.855-11.626,6.537-18.52
	c2.393-6.147,4.721-12.716,6.537-17.43c4.396-11.415,11.561-25,11.982-37.038c0.221-6.313-3.055-12.174-3.268-17.43
	c-0.441-10.86,4.037-21.268-1.09-33.77c-1.684,6.668-1.838,14.865-2.18,22.877c-3.336-1.021-2.676-6.039-5.445-7.626
	c0.695,13.065,5.826,23.14,5.445,34.859c-0.691,21.354-18.631,39.216-35.947,39.216c-19.4,0-31.154-16.965-39.217-34.858
	c-2.15,28.684,34.582,51.494,62.094,33.77c-3.045,12.932-7.717,24.239-11.984,35.949c4.707,15.515,15.211,25.701,21.787,40.306
	c2.109,4.685,5.273,10.659,5.447,15.251c0.375,9.863-7.047,23.557-9.803,37.038c-4.225,20.648-4.678,39.578-6.537,63.182
	c-36.076,1.983-77.178-16.663-101.311,9.805c-4.637-2.263-6.364-7.434-10.893-9.805c1.452,5.562,6.491,8.922,6.536,14.162
	c0.036,4.211-3.905,9.195-5.447,14.161c-6.896,22.209-1.351,55.09,9.804,70.809c2.564,3.612,7.837,6.675,8.715,10.893
	c1.209,5.809-2.688,18.127-4.358,28.323c-7.534,46.01-18.692,90.019-37.038,125.276c-7.37,14.164-17.097,26.065-25.055,39.217
	c-8.226,13.592-13.414,29.22-20.698,44.662c-16.777,35.567-37.812,69.997-57.736,103.489c-4.027,6.77-9.261,13.536-11.982,19.608
	c-6.603,14.731-4.531,27.714-13.072,39.217c-2.746,3.699-7.233,4.775-10.894,8.715c-5.041,5.426-13.627,17.512-15.25,22.876
	c-1.567,5.177-0.118,11.947-1.089,15.251c-3.116,10.594-14.905,15.825-21.787,25.056c-5.439,7.294-5.079,14.917-11.983,19.608
	c-3.133-1.224-6.426-2.291-8.715-4.358c0.348-6.189,2.094-10.979,3.268-16.34c-5.558,3.52-4.947,13.208-10.893,16.34
	c-7.444-4.588,0.782-14.826,2.178-20.697c-2.596-0.022-6.862,7.639-8.715,11.983c-3.179-7.56,1.941-16.2,4.357-21.788
	c-9.083,0.721-5.271,14.337-11.982,17.431c-2.914-8.188,0.886-17.157,1.089-22.876c-3.569,4.418-6.952,9.025-6.537,17.429
	c-8.984-9.325,0.824-14.965,8.715-25.056c6.347-8.115,7.566-14.733,11.983-20.696c7.204-9.729,20.756-17.847,31.591-27.234
	c10.667-9.242,22.561-18.574,29.412-29.413c17.456-27.606,15.23-76.562,23.966-112.203c3.819-15.581,9.384-27.407,18.519-41.396
	c20.995-32.147,43.197-54.492,45.753-98.041c4.473,7.509,9.279,14.686,11.983,23.966
	C460.166,1267.2,448.867,1247.285,443.251,1226.812z M634.977,1057.963c-24.672,14.938-71.445-3.207-93.684,14.161
	c-5.183,4.047-6.12,7.695-11.983,13.072c2.917-27.804,24.842-41.847,52.288-41.396c16.73,0.274,36.689,9.682,54.469,4.357
	C635.393,1051.114,637.45,1056.804,634.977,1057.963z M540.204,1075.392c20.584-18.003,69.049,0.853,92.594-15.25
	c6.738,5.465-0.576,12.14-7.625,14.161c-14.521,4.166-44.674-2.307-64.271,0c-16.591,1.951-24.037,8.306-29.413,21.787
	C529.745,1087.022,535.779,1079.262,540.204,1075.392z M559.812,1078.66c24.125-3.605,56.172,8.153,72.985-7.626
	c2.945,9.132-4.199,17.574-5.445,26.145c-30.51-2.166-55.693,6.735-53.379,33.771c5.732-14.965,16.514-24.883,35.949-26.145
	c-3.037,5.91-15.037,10.85-20.697,21.787c-1.855,3.583-0.971,7.783-3.268,10.894c-3.689,4.994-21.176,8.726-18.52,17.429
	c1.697,5.57,9.035,5.364,14.16,3.269c3.775,1.973-6.055,8.194-9.803,9.805c-10.641-21.464-39.051-28.414-39.217-57.735
	C532.485,1093.79,544.143,1081.001,559.812,1078.66z M350.656,1605.906c1.868-6.847,4.406-13.023,5.448-20.698
	c5.27,16.518,9.237,34.337,13.072,52.289c-7.293-1.089-7.313-9.944-9.805-15.251
	C356.684,1616.522,352.595,1611.246,350.656,1605.906z M359.371,1633.141c-8.164-3.094-18.835-3.68-30.501-3.268
	c5.359-7.714,14.064-12.081,18.519-20.699C353.101,1615.444,355.636,1624.893,359.371,1633.141z M359.371,1577.584
	c4.79-5.38,8.544-11.791,16.341-14.162c0.406,14.712,8.87,28.41,8.714,42.484c-0.122,11.067-7.534,20.477-8.714,31.591
	C368.296,1619.494,364.668,1597.704,359.371,1577.584z M378.98,1559.063c10.761-15.019,10.326-41.235,22.876-54.468
	c-0.641,29.501-5.498,64.22-13.072,90.417C383.559,1584.986,383.706,1569.59,378.98,1559.063z M395.32,1311.781
	c0.616-15.87-0.391-33.034,4.357-46.842c13.113-2.773,28.83-0.168,41.396,1.089c-3.159,31.131-16.679,52.822-31.591,72.986
	c-4.916,6.647-8.896,14.373-15.25,19.609C396.217,1343.523,394.707,1327.58,395.32,1311.781z M393.142,1276.923
	c-2.652,15.907-1.982,35.481-2.179,53.378c-0.139,12.7,2.425,26.555-1.089,38.127c-1.153,3.796-4.838,8.34-6.536,11.983
	c-13.144,28.208-14.2,66.816-19.609,106.756c-16.769-69.29-31.464-140.653-40.306-217.871
	C342.917,1274.78,374.367,1287.666,393.142,1276.923z M287.474,1286.726c13.85-1.238,20.229-14.86,30.502-18.518
	c7.69,66.986,18.16,138.796,34.859,201.529c2.515,9.45,7.72,18.974,7.625,26.145c-0.144,10.873-8.431,18.998-13.072,27.234
	c-27.17-81.038-50.712-165.708-82.791-241.837C271.219,1283.103,278.836,1287.5,287.474,1286.726z M214.488,1281.279
	c9.599-4.568,28.938-17.532,41.396-8.715c4.216,2.985,8.482,20.559,11.982,30.503c24.15,68.605,45.355,134.99,68.629,206.976
	c2.083,6.442,5.69,12.712,5.447,15.251c-0.752,7.856-16.262,19.3-22.877,21.788c-43.893-84.289-86.42-169.938-130.721-253.819
	C195.044,1288.777,204.597,1285.988,214.488,1281.279z M154.573,1280.19c11.783-0.677,15.252,11.574,29.413,11.982
	c42.647,87.351,85.788,174.203,131.812,258.177c-2.292,3.881-6.678,5.668-9.804,8.714c-9.442-9.416-16.08-20.796-23.966-31.591
	c-53.212-72.845-107.504-150.13-161.224-224.405C135.714,1300.535,141.066,1280.966,154.573,1280.19z M85.944,1320.496
	c2.04-12.738,18.069-11.347,30.502-16.34h2.178c59.726,87.335,118.707,175.421,184.101,257.087
	c-5.728,6.982-12.778,12.64-15.251,22.876c-73.106-71.052-135.947-152.366-200.441-232.032
	C96.013,1341.571,84.411,1330.072,85.944,1320.496z M56.531,1372.784c9.797-8.219,20.134-13.688,29.413-19.607
	c34.117,49.413,71.446,97.476,111.114,142.705c12.894,14.703,26.832,28.585,37.038,44.664c10.907,4.783,21.62,22.129,33.77,33.77
	c4.186,4.011,16.539,10.822,15.251,16.34c-0.539,2.308-3.626,2.081-4.357,6.536c-67.194-51.729-143.821-110.715-214.603-166.671
	c-8.169-6.459-26.254-17.713-27.234-27.233C35.727,1391.659,48.181,1379.791,56.531,1372.784z M11.869,1466.47
	c-2.093-20.055,24.984-32.688,28.323-50.111c71.627,59.715,145.722,117.369,221.138,174.297c4.594,3.468,11.397,6.802,13.073,13.073
	c-76.433-36.137-157.774-73.168-237.479-102.4C35.069,1488.343,13.144,1478.691,11.869,1466.47z M88.123,1593.923
	c-4.375-1.166-11.036-7.418-15.251-10.894c-5.296-4.365-10.032-7.703-15.25-10.893c-10.686-6.532-25.032-12.251-28.324-22.876
	c-5.135-16.578,6.749-27.669,7.626-44.665c0.926-0.199,1.028,0.426,1.089,1.09c57.37,26.182,122.119,51.038,181.922,78.434
	c9.023,4.134,19.768,9.668,29.412,14.162c3.591,1.674,10.972,3.752,15.251,6.536c4.736,3.08,8.392,4.581,4.357,11.982
	c-2.341,4.186-6.91,0.415-9.804,0c-12.39-1.777-23.004-2.975-34.859-6.536c-20.987-6.302-39.024-16.255-68.629-16.341
	c-10.77-0.03-22.562,1.09-33.77,1.09C110.842,1595.013,97.231,1596.354,88.123,1593.923z M216.667,1661.464v-3.269
	c1.867,1.401,4.283,2.252,4.357,5.446C218.859,1663.628,219.639,1660.67,216.667,1661.464z M240.632,1693.055
	c-3.66,1.118-1.696-3.389-2.178-5.446C240.834,1687.769,240.792,1690.353,240.632,1693.055z M256.973,1709.395
	c-2.73,2.276-4.574-4.695-4.357-6.536c2.099,0.442,0.86,4.225,4.357,3.269C256.217,1707.006,255.277,1709.11,256.973,1709.395z
	 M263.508,1705.037c-3.606-0.703-4.742-2.2-3.268,2.18c-3.442-2.031-1.899-6.539-1.089-9.806c1.583,0.483-0.111,0.957,0,2.179
	C260.417,1701.594,264.933,1700.346,263.508,1705.037z M349.567,1663.642c-5.877,0.267-12.788-6.87-20.697-7.624
	c-3.725-0.356-7.645,0.361-11.983,0c-8.254-0.69-16.67-3.965-22.876-4.358c-8.051-0.51-19.189,2.149-28.323,2.179
	c-11.053,0.036-23.265-2.098-34.859-4.357c-10.342-2.015-19.29-6.747-29.413-9.805c-22.175-6.697-50.439-4.904-63.183-14.161
	c-7.813-5.677-13.465-18.283-18.519-23.965c16.298,0.989,28.648-1.883,41.396-1.09c30.105,1.87,51.646,18.474,79.522,22.876
	c11.904,1.88,24.247,2.529,38.128,4.357c1.387,2.607,3.554,4.435,7.625,4.357c1.703,3.381,2.852,7.316,5.447,9.805
	c8.187-0.435,15.088,8.386,21.787,7.625c7.235-0.823,7.963-8.364,13.072-14.162c20.02-1.491,33.076,8.532,49.021,7.626
	c-0.988,6.798,1.624,9.995,2.178,15.251C367.831,1651.637,357.076,1663.304,349.567,1663.642z M396.41,1689.786
	c-4.564-3.896,2.134,0.492,2.178,0C398.4,1691.859,396.658,1689.998,396.41,1689.786z M398.588,1686.519
	c-5.537,0.816-2.126-7.315-8.715-5.446c0.608-2.221,3.278-2.137,1.089-4.358c-2.98,2.729-1.603,4.896,0,7.626
	c-2.36,2.04-6.273-0.972-7.625-3.268c5.444,2.032,2.071-8.803,3.268-13.073c5.929,1.525,6.054,2.084,13.072,2.18
	C401.807,1675.033,400.57,1682.521,398.588,1686.519z M423.644,1689.786c-7.589,0.317-8.628,3.245-16.34,2.179
	c-4.186-7.567-1.143-11.069-2.179-21.786c4.376-1.072,9.559-1.336,15.251-1.09C420.686,1676.766,424.073,1681.368,423.644,1689.786z
	 M447.609,1693.055c-3.5,0.231-2.651-3.886-4.358-5.446c-1.114,4.331-7.658,3.235-13.072,3.267
	c-2.214-7.59-4.807-14.801-6.536-22.876c19.061-1.269,23.638,11.947,29.412,23.966
	C450.43,1689.23,448.981,1689.742,447.609,1693.055z M455.234,1683.251c-2.197-1.435-3.686-3.577-4.357-6.537
	c2.504,1.128,5.012,2.25,6.536,4.358C457.145,1682.256,455.247,1681.811,455.234,1683.251z M459.592,1718.109
	c0.475-1.341,1.393-2.236,3.268-2.178C462.385,1717.271,461.467,1718.168,459.592,1718.109z M467.217,1715.932
	c-0.012,0-3.29,1.312-2.178,0C467.48,1713.046,477.436,1714.85,467.217,1715.932z M502.077,1663.642
	c-3.416-2.346-6.842-3.424-10.893-5.446c-0.41,5.512,13.019,6.576,13.072,15.25c-12.702,0.135-22.182,1.747-33.77,1.09
	c-16.143-0.917-27.92-12.327-40.306-14.161c-18.695-2.77-44.305,8.629-46.842-13.072c-1.329-11.37,5.173-26.806,8.715-38.128
	c7.941-25.382,12.799-45.678,15.251-77.344c1.098-14.188,0.491-29.752,4.357-41.396c4.712-14.185,16.989-27.478,25.056-42.484
	c19.318-35.94,35.081-76.912,56.646-111.114c29.134-46.206,51.1-106.953,55.557-178.653v-3.269c7.44,4.544,14.015,9.952,18.52,17.43
	c-0.693,6.207-5.958,7.842-4.358,16.341c4.512,5.567,11.895,0.442,18.518,0c12.812-0.855,27.504,0.943,39.219,2.18
	c6.305-3.137,13.234-5.648,18.518-9.806c-0.045,7.014-5.588,12.729-8.715,18.52c-20.098,37.227-41.623,74.526-66.449,108.935
	c-3.828,5.304-9.683,9.782-13.073,15.251c-2.417,3.901-7.586,13.118-9.804,18.52c-2.383,5.803-2.333,12.809-4.357,18.519
	c-5.336,15.053-13.834,30.701-20.698,45.753c-18.32,40.179-39.468,74.494-63.183,113.293c-10.92,17.867-26.619,40.395-28.323,59.914
	c-2.643,30.274,14.835,41.838,32.681,54.468c6.835,4.838,14.524,11.377,20.698,14.161c12.844,5.795,30.552,7.746,33.77,22.876
	C507.323,1670.427,505.454,1665.962,502.077,1663.642z M638.247,1658.195c-9.203-2.333-18.979-4.735-29.414-5.446
	c-10.656-0.728-23.783,0.755-35.949,0c-13.646-0.849-27.04-6.166-35.947-4.358c-5.178,1.052-7.066,6.263-11.983,6.537
	c-9.592-3.603-20.311-7.874-31.592-9.806c-7.266-1.242-14.66-0.524-19.607-5.446c21.742-9.729,43.04-0.612,66.45-2.179
	c21.543-1.44,39.301-13.855,58.824-11.982c31.4,3.012,54.535,26.188,84.971,31.592
	C672.026,1669.268,656.872,1662.916,638.247,1658.195z M799.469,1627.693c-4.557,15.401-17.346,25.413-39.217,27.234
	c-16.25,1.353-36.994,3.745-52.289,2.179c-18.924-1.938-33.297-10.491-44.662-13.072c46.303-10.705,96.031-17.987,144.883-26.145
	C812.202,1618.007,801.102,1625.775,799.469,1627.693z M806.006,1612.442c-41.742,5.158-86.209,14.043-127.455,21.787
	c-8.959,1.683-18.732,4.906-25.055,4.357c-13.904-1.208-28.051-15.813-43.574-16.341c71.939-30.461,148.041-56.757,218.959-88.237
	c7.482,22.294,24.375,35.177,23.967,65.361C841.006,1610.351,823.026,1610.341,806.006,1612.442z"/>
<path fill-rule="evenodd" clip-rule="evenodd" stroke="#3953A4" stroke-width="0.001" stroke-miterlimit="10" d="M2,1144.822
	c0-8.352,0-16.703,0-25.056c2.222,0.608,2.136,3.277,4.357,1.09c0.817-5.47-4.426,1.861-3.268-3.269
	c2.833-2.933,3.286,1.332,6.537,1.09c-0.708-1.107-2.505-1.127-2.179-3.268c-3.472-0.932-4.135,0.948-5.447,2.178
	c0-4.355,0-8.714,0-13.071c5.314,1.46,10.907-4.821,5.447,2.179c7.496-3.322,8.098-2.144,13.072-5.447
	c0.106-5.702-8.186,2.635-8.715-3.268c-4.772-17.978-1.353-45.422-3.268-68.629c4.989-2.829,6.741-7.124,13.072-6.536
	c22.574,2.093,1.742,48.091,1.09,58.825c6.333-4.598,12.883-10.071,22.876-14.162c7.705-3.153,26.859-7.121,25.055,5.447
	c-0.698,4.861-7.16,6.588-13.072,7.625c-4.387,0.769-10.586-2.452-13.072,2.179c10.573,0.77,18.02-1.589,25.056-4.357
	C52.328,1105.822,27.966,1126.125,2,1144.822z M15.072,1096.891c-2.088-3.611-0.361-4.726-3.268-6.536
	C9.794,1092.494,12.761,1095.8,15.072,1096.891z M3.089,1111.053c2.729,0.187,2.645-2.439,4.357-3.269
	C4.72,1107.599,4.037,1109.458,3.089,1111.053z M7.447,1111.053c3.103,1.493,6.55-1.953,3.269-3.269
	C10.595,1109.843,7.113,1108.541,7.447,1111.053z M12.893,1112.143c1.288,0.155,2.47,1.938,3.269,0c-1.316-0.23-0.67-1.209,0-2.179
	c-0.726,0-1.453,0-2.179,0C13.987,1111.056,13.101,1111.258,12.893,1112.143z M8.536,1113.232
	C12.206,1116.539,11.839,1109.203,8.536,1113.232L8.536,1113.232z"/>
<path fill-rule="evenodd" clip-rule="evenodd" stroke="#3953A4" stroke-width="0.001" stroke-miterlimit="10" d="M547.829,535.073
	c-6.59-0.417-10.489,1.857-14.161,4.357C530.67,534.495,545.945,525.688,547.829,535.073z"/>
<path fill-rule="evenodd" clip-rule="evenodd" stroke="#3953A4" stroke-width="0.001" stroke-miterlimit="10" d="M567.438,572.111
	c-2.258-4.641-0.43-13.37-2.18-18.519C562.525,544.512,574.795,566.977,567.438,572.111z"/>
<path fill-rule="evenodd" clip-rule="evenodd" fill="#FFFFFF" stroke="#3953A4" stroke-width="0.001" stroke-miterlimit="10" d="
	M721.038,648.365c-3.219-1.561,2.527-0.835,1.088,2.18C721.28,652.531,720.954,649.892,721.038,648.365z"/>
<path fill-rule="evenodd" clip-rule="evenodd" stroke="#3953A4" stroke-width="0.001" stroke-miterlimit="10" d="M774.227,155.196
	c6.945,0,13.893,0,20.838,0c-6.736,14.178-16.369,25.735-24.045,38.475c-7.572,12.567-17.068,26.222-17.633,44.884
	c31.969,0.976,27.494-34.491,43.283-49.694c5.342-0.537,7.109-4.645,14.428-3.206c9.953-10.887,18.652-23.026,28.854-33.664
	c3.42-12.077,5.191-25.802,20.84-25.65c2.363,12.23-13.461,19.485-19.236,28.855c-4.127,24.213,13.66,32.071,12.824,52.9
	c-1.213,30.217-63.115,51.523-70.533,16.031c-8.141,18.599-50.785,28.086-43.283-6.413c-10.096,2.314-17.191,28.183-36.869,24.047
	c-8.398-1.763-17.957-15.647-9.619-28.855c-13.463,2.976-20.059,36.217-44.885,28.855c-6.949-2.061-10.525-10.821-11.223-16.031
	c-3.814-28.49,31.146-41.185,30.457-67.328c-9.734-5.404-16.688,1.856-22.441,6.412c-22.248,17.611-36.756,51.354-52.9,75.344
	c-6.947,0-13.893,0-20.84,0c14.186-28.563,37.348-48.149,44.885-83.359c-13.537,0.063-18.109,12.962-24.045,20.839
	c-12.211,16.2-22.068,32.633-40.077,48.092c-9.098,7.809-24.555,21.385-44.886,16.031c-18.376-4.842-21.688-31.406-12.824-48.09
	c7.227-13.606,32.037-31.1,49.695-36.871c15.009-4.906,30.585-5.187,33.664,4.809c4.102,13.317-13.592,23.699-22.444,27.252
	c-12.25,4.918-26.536,6.2-40.075,9.619c-6.852,7.575-12.523,16.331-11.221,32.061c0.471,3.268,4.336,3.142,4.808,6.411
	c31.408,2.162,44.159-17.526,64.123-41.678c10.213-12.355,30.494-46.828,46.488-41.681c8.023,2.583,11.385,18.958,4.809,28.855
	c11.75-6.096,20.871-36.555,48.09-27.251c21.838,32.146-21.686,55.352-20.838,81.755c29.082,2.22,36.713-35.8,56.107-49.694
	c4.352-12.214,12.602-20.527,17.633-32.061c6.947,0,13.895,0,20.84,0c-7.617,13.211-15.963,26.942-24.047,40.077
	c-7.896,12.829-20.141,26.027-17.633,43.282c15.398,1.737,22.084-12.345,28.855-20.841
	C748.815,199.314,762.655,176.644,774.227,155.196z M817.51,198.479c-14.215,6.444-43.424,20.964-22.445,38.472
	c40.211,1.732,47.348-38.146,41.682-76.947C830.413,173.679,812.512,177.988,817.51,198.479z M517.739,195.272
	c21.672-7.717,45.424-13.356,51.297-36.871C542.365,154.791,531.262,180.415,517.739,195.272z"/>
<path fill-rule="evenodd" clip-rule="evenodd" stroke="#3953A4" stroke-width="0.001" stroke-miterlimit="10" d="M564.17,870.594
	c0.357,2.546,1.309,4.5,2.18,6.536c-1.273,4.074,2.396,12.711,0,10.894c-0.957-3.766-1.896-7.546-4.359-9.805
	c-1.619-10.35-1.403-20.343,2.18-25.055C567.157,849.234,562.432,861.096,564.17,870.594z"/>
<path fill-rule="evenodd" clip-rule="evenodd" stroke="#3953A4" stroke-width="0.001" stroke-miterlimit="10" d="M561.991,943.581
	c-0.969-2.662-2.538-4.725-2.178-8.716c2.639,0.63,2.421,4.114,3.268,6.537c1.09,0,2.178,0,3.27,0
	C568.524,929.714,570.793,945.925,561.991,943.581z"/>
<path fill-rule="evenodd" clip-rule="evenodd" fill="#FFFFFF" stroke="#3953A4" stroke-width="0.001" stroke-miterlimit="10" d="
	M2,1117.588c1.312-1.229,1.975-3.109,5.447-2.178c-0.326,2.141,1.471,2.16,2.179,3.268c-3.251,0.242-3.704-4.022-6.537-1.09
	c-1.158,5.13,4.085-2.201,3.268,3.269c-2.222,2.188-2.136-0.481-4.357-1.09C2,1119.04,2,1118.314,2,1117.588z"/>
<path fill-rule="evenodd" clip-rule="evenodd" stroke="#3953A4" stroke-width="0.001" stroke-miterlimit="10" d="M2,1077.282
	c0-2.541,0-5.084,0-7.625c0.726,0,1.453,0,2.179,0c0.4-1.853-0.85-2.056-2.179-2.179c0-10.894,0-21.787,0-32.681
	c2.662,0.721,3.981-5.291,5.447-2.178c0,14.886,0,29.775,0,44.662C4.094,1076.521,5.353,1076.521,2,1077.282z"/>
<path fill-rule="evenodd" clip-rule="evenodd" fill="#FFFFFF" stroke="#3953A4" stroke-width="0.001" stroke-miterlimit="10" d="
	M7.447,1107.784c-1.712,0.829-1.628,3.455-4.357,3.269C4.037,1109.458,4.72,1107.599,7.447,1107.784z"/>
<path fill-rule="evenodd" clip-rule="evenodd" fill="#FFFFFF" stroke="#3953A4" stroke-width="0.001" stroke-miterlimit="10" d="
	M396.41,1689.786c-4.564-3.896,2.134,0.492,2.178,0C398.4,1691.859,396.658,1689.998,396.41,1689.786z"/>
<path fill-rule="evenodd" clip-rule="evenodd" fill="#FFFFFF" stroke="#3953A4" stroke-width="0.001" stroke-miterlimit="10" d="
	M259.151,1697.411c1.583,0.483-0.111,0.957,0,2.179c1.266,2.004,5.781,0.756,4.357,5.447c-3.606-0.703-4.742-2.2-3.268,2.18
	C256.798,1705.186,258.341,1700.678,259.151,1697.411z"/>
<path fill-rule="evenodd" clip-rule="evenodd" fill="#FFFFFF" stroke="#3953A4" stroke-width="0.001" stroke-miterlimit="10" d="
	M252.615,1702.858c2.099,0.442,0.86,4.225,4.357,3.269c-0.756,0.879-1.695,2.983,0,3.268
	C254.242,1711.671,252.399,1704.699,252.615,1702.858z"/>
<path fill-rule="evenodd" clip-rule="evenodd" stroke="#3953A4" stroke-width="0.001" stroke-miterlimit="10" d="M2,1090.354
	c0-3.631,0-7.263,0-10.894C9.306,1078.404,9.34,1091.479,2,1090.354z"/>
<path fill-rule="evenodd" clip-rule="evenodd" stroke="#3953A4" stroke-width="0.001" stroke-miterlimit="10" d="M597.94,583.005
	c-0.629,2.639-4.113,2.422-6.535,3.268c0.531,3.438-1.965,3.847-1.09,7.625c-7.877,6.725-11.627-3.527-19.609-3.267
	c2.389-1.606,5.645-2.345,5.447-6.537C585.799,582.08,591.928,583.116,597.94,583.005z"/>
<path fill-rule="evenodd" clip-rule="evenodd" fill="#FFFFFF" stroke="#3953A4" stroke-width="0.001" stroke-miterlimit="10" d="
	M690.534,592.809c12.312-0.8,23.264,6.027,26.145,16.34c3.477,12.442-5.037,25.694-4.357,39.216
	C697.879,640.955,711.911,596.798,690.534,592.809z"/>
<path fill-rule="evenodd" clip-rule="evenodd" fill="#FFFFFF" stroke="#3953A4" stroke-width="0.001" stroke-miterlimit="10" d="
	M420.375,1669.089c0.31,7.677,3.697,12.279,3.268,20.697c-7.589,0.317-8.628,3.245-16.34,2.179
	c-4.186-7.567-1.143-11.069-2.179-21.786C409.5,1669.106,414.683,1668.843,420.375,1669.089z M409.481,1685.429
	c1.473,0.343,2.081,1.551,4.357,1.09C414.127,1683.335,409.612,1682.336,409.481,1685.429z"/>
<path fill-rule="evenodd" clip-rule="evenodd" fill="#FFFFFF" stroke="#3953A4" stroke-width="0.001" stroke-miterlimit="10" d="
	M423.644,1667.999c19.061-1.269,23.638,11.947,29.412,23.966c-2.625-2.734-4.075-2.223-5.446,1.09
	c-3.5,0.231-2.651-3.886-4.358-5.446c-1.114,4.331-7.658,3.235-13.072,3.267C427.965,1683.285,425.373,1676.074,423.644,1667.999z"
	/>
</svg>
